<svg width="94" height="95" viewBox="0 0 94 95" fill="none" xmlns="http://www.w3.org/2000/svg">
<mask id="path-1-outside-1_14_6" maskUnits="userSpaceOnUse" x="0" y="0" width="94" height="95" fill="black">
<rect fill="white" width="94" height="95"/>
<path d="M38.1875 77.25V36.9375L57.5625 6.0625H86.3125L38.1875 77.25ZM6.3125 89V6.0625H33.9375V89H6.3125ZM57.75 89L48.375 69.6875L64.75 45.125L87.625 89H57.75Z"/>
</mask>
<path d="M38.1875 77.25V36.9375L57.5625 6.0625H86.3125L38.1875 77.25ZM6.3125 89V6.0625H33.9375V89H6.3125ZM57.75 89L48.375 69.6875L64.75 45.125L87.625 89H57.75Z" fill="#191818"/>
<path d="M38.1875 77.25H32.1875C32.1875 79.8868 33.909 82.2147 36.4303 82.9869C38.9515 83.7592 41.6814 82.7949 43.1582 80.6104L38.1875 77.25ZM38.1875 36.9375L33.1053 33.7483C32.5056 34.7039 32.1875 35.8093 32.1875 36.9375H38.1875ZM57.5625 6.0625V0.0625C55.4976 0.0625 53.5779 1.12426 52.4803 2.87326L57.5625 6.0625ZM86.3125 6.0625L91.2832 9.42286C92.5264 7.58392 92.6527 5.20889 91.6117 3.24844C90.5706 1.288 88.5322 0.0625 86.3125 0.0625V6.0625ZM6.3125 89H0.3125C0.3125 92.3137 2.99879 95 6.3125 95L6.3125 89ZM6.3125 6.0625V0.0625C2.99879 0.0625 0.3125 2.74879 0.3125 6.0625H6.3125ZM33.9375 6.0625H39.9375C39.9375 2.74879 37.2512 0.0625 33.9375 0.0625V6.0625ZM33.9375 89V95C37.2512 95 39.9375 92.3137 39.9375 89H33.9375ZM57.75 89L52.3524 91.6202C53.3559 93.6875 55.452 95 57.75 95V89ZM48.375 69.6875L43.3827 66.3593C42.2023 68.1299 42.048 70.3933 42.9774 72.3077L48.375 69.6875ZM64.75 45.125L70.0703 42.3512C69.0899 40.4707 67.1897 39.2475 65.0721 39.1337C62.9545 39.0198 60.934 40.0323 59.7577 41.7968L64.75 45.125ZM87.625 89V95C89.7226 95 91.6679 93.9046 92.7555 92.111C93.843 90.3174 93.915 88.0861 92.9453 86.2262L87.625 89ZM44.1875 77.25V36.9375H32.1875V77.25H44.1875ZM43.2697 40.1267L62.6447 9.25174L52.4803 2.87326L33.1053 33.7483L43.2697 40.1267ZM57.5625 12.0625H86.3125V0.0625H57.5625V12.0625ZM81.3418 2.70214L33.2168 73.8896L43.1582 80.6104L91.2832 9.42286L81.3418 2.70214ZM12.3125 89V6.0625H0.3125V89H12.3125ZM6.3125 12.0625H33.9375V0.0625H6.3125V12.0625ZM27.9375 6.0625V89H39.9375V6.0625H27.9375ZM33.9375 83H6.3125V95H33.9375V83ZM63.1476 86.3798L53.7726 67.0673L42.9774 72.3077L52.3524 91.6202L63.1476 86.3798ZM53.3673 73.0157L69.7423 48.4532L59.7577 41.7968L43.3827 66.3593L53.3673 73.0157ZM59.4297 47.8988L82.3047 91.7738L92.9453 86.2262L70.0703 42.3512L59.4297 47.8988ZM87.625 83H57.75V95H87.625V83Z" fill="#E9E9E9" mask="url(#path-1-outside-1_14_6)"/>
</svg>
